# xmcd CD database file
# Copyright (C) 1996 Ti Kan
#
# Track frame offsets:
#	150
#	9760
#	22815
#	35727
#	48690
#	62550
#	77192
#	93735
#	111077
#	124025
#	137522
#	150405
#	163790
#	178685
#	197440
#	213590
#	225912
#
# Disc length: 3226 seconds
#
# Revision: 1
# Processed by: cddbd v1.4b41PL1 Copyright (c) Steve Scherf et al.
# Submitted via: EasyCD 2.21 - (C) 1996 Greg Leichner
#
DISCID=d40c9811
DTITLE=Don Walser and the Pure Texas Band - The Archive Series Vol. 1
DYEAR=1900
DGENRE=
TTITLE0=Casting My Lasso
TTITLE1=Bouquet of Roses
TTITLE2=Tomorrow Is a Million Miles Away
TTITLE3=Chime Bells
TTITLE4=Big Ball in Cowtown
TTITLE5=New Patches
TTITLE6=September in the Rain
TTITLE7=The John Deere Tractor Song
TTITLE8=Cattle Call
TTITLE9=She's Got Everything but Me
TTITLE10=Fuzz Dixon
TTITLE11=Lonesome 77203
TTITLE12=You
TTITLE13=Dixie Blues
TTITLE14=Cowboy Ramsey
TTITLE15=Curtain in the Window
TTITLE16=Jersey Bounce
EXTD=
EXTT0=
EXTT1=
EXTT2=
EXTT3=
EXTT4=
EXTT5=
EXTT6=
EXTT7=
EXTT8=
EXTT9=
EXTT10=
EXTT11=
EXTT12=
EXTT13=
EXTT14=
EXTT15=
EXTT16=
PLAYORDER=
